{"title":"Portrait.Of.Jennie.1948.HQTV.720p.x264.AC3.[FrOnkY]","uid":11389857,"size":2449715134,"categoryP":"video","categoryS":"hd___movies","magnet":"?xt=urn:btih:73929ad61ded30d1cf55fe917ffa8114d3d1385e&amp;dn=Portrait.Of.Jennie.1948.HQTV.720p.x264.AC3.%5BFrOnkY%5D&amp;tr=udp%3A%2F%2Ftracker.openbittorrent.com%3A80&amp;tr=udp%3A%2F%2Fopen.demonii.com%3A1337&amp;tr=udp%3A%2F%2Ftracker.coppersurfer.tk%3A6969&amp;tr=udp%3A%2F%2Fexodus.desync.com%3A6969","seeders":1,"leechers":0,"uploader":"HDmEntEs","files":-1,"time":1415311561,"description":"Portrait.Of.Jennie.1948.HQTV.720p.x264.AC3.[FrOnkY].mkv\n\n\nFormat                                   : Matroska\nFormat version                           : Version 4 / Version 2\nFile size                                : 2.28 GiB\nDuration                                 : 1h 26mn\nOverall bit rate                         : 3 788 Kbps\nWriting application                      : mkvmerge v6.9.1 ('Blue Panther') 32bit built on Apr 18 2014 18:15:44\nWriting library                          : libebml v1.3.0 + libmatroska v1.4.1\nAttachment                               : Yes / Yes / Yes\n\nVideo\nID                                       : 1\nFormat                                   : AVC\nFormat/Info                              : Advanced Video Codec\nFormat profile                           : &lt;a class=&quot;__cf_email__&quot; href=&quot;/cdn-cgi/l/email-protection&quot; data-cfemail=&quot;6f270608072f235b415e&quot;&gt;[email&amp;#160;protected]&lt;/a&gt;&lt;script cf-hash='f9e31' type=&quot;text/javascript&quot;&gt;\n/* &lt;![CDATA[ */!function(){try{var t=&quot;currentScript&quot;in document?document.currentScript:function(){for(var t=document.getElementsByTagName(&quot;script&quot;),e=t.length;e--;)if(t[e].getAttribute(&quot;cf-hash&quot;))return t[e]}();if(t&amp;&amp;t.previousSibling){var e,r,n,i,c=t.previousSibling,a=c.getAttribute(&quot;data-cfemail&quot;);if(a){for(e=&quot;&quot;,r=parseInt(a.substr(0,2),16),n=2;a.length-n;n+=2)i=parseInt(a.substr(n,2),16)^r,e+=String.fromCharCode(i);e=document.createTextNode(e),c.parentNode.replaceChild(e,c)}}}catch(u){}}();/* ]]&gt; */&lt;/script&gt;\nFormat settings, CABAC                   : Yes\nFormat settings, ReFrames                : 11 frames\nCodec ID                                 : V_MPEG4/ISO/AVC\nDuration                                 : 1h 26mn\nBit rate                                 : 3 333 Kbps\nWidth                                    : 964 pixels\nHeight                                   : 720 pixels\nDisplay aspect ratio                     : 4:3\nFrame rate mode                          : Constant\nFrame rate                               : 23.976 fps\nColor space                              : YUV\nChroma subsampling                       : 4:2:0\nBit depth                                : 8 bits\nScan type                                : Progressive\nBits/(Pixel*Frame)                       : 0.200\nStream size                              : 1.97 GiB (86%)\nWriting library                          : x264 core 142 r2389 956c8d8\nLanguage                                 : English\nDefault                                  : Yes\nForced                                   : No\n\nAudio #1\nID                                       : 2\nFormat                                   : AC-3\nFormat/Info                              : Audio Coding 3\nMode extension                           : CM (complete main)\nFormat settings, Endianness              : Big\nCodec ID                                 : A_AC3\nDuration                                 : 1h 26mn\nBit rate mode                            : Constant\nBit rate                                 : 192 Kbps\nChannel(s)                               : 2 channels\nChannel positions                        : Front: L R\nSampling rate                            : 48.0 KHz\nBit depth                                : 16 bits\nStream size                              : 118 MiB (5%)\nLanguage                                 : English\nDefault                                  : Yes\nForced                                   : No\n\nAudio #2\nID                                       : 3\nFormat                                   : AC-3\nFormat/Info                              : Audio Coding 3\nMode extension                           : CM (complete main)\nFormat settings, Endianness              : Big\nCodec ID                                 : A_AC3\nDuration                                 : 1h 26mn\nBit rate mode                            : Constant\nBit rate                                 : 192 Kbps\nChannel(s)                               : 2 channels\nChannel positions                        : Front: L R\nSampling rate                            : 48.0 KHz\nBit depth                                : 16 bits\nStream size                              : 118 MiB (5%)\nLanguage                                 : Spanish\nDefault                                  : No\nForced                                   : No\n\nAudio #3\nID                                       : 4\nFormat                                   : AC-3\nFormat/Info                              : Audio Coding 3\nMode extension                           : CM (complete main)\nFormat settings, Endianness              : Big\nCodec ID                                 : A_AC3\nDuration                                 : 1h 26mn\nBit rate mode                            : Constant\nBit rate                                 : 64.0 Kbps\nChannel(s)                               : 1 channel\nChannel positions                        : Front: C\nSampling rate                            : 48.0 KHz\nBit depth                                : 16 bits\nStream size                              : 39.5 MiB (2%)\nLanguage                                 : Spanish\nDefault                                  : No\nForced                                   : No\n\nText #1\nID                                       : 5\nFormat                                   : UTF-8\nCodec ID                                 : S_TEXT/UTF8\nCodec ID/Info                            : UTF-8 Plain Text\nLanguage                                 : Spanish\nDefault                                  : Yes\nForced                                   : No\n\nText #2\nID                                       : 6\nFormat                                   : UTF-8\nCodec ID                                 : S_TEXT/UTF8\nCodec ID/Info                            : UTF-8 Plain Text\nTitle                                    : for\nLanguage                                 : Spanish\nDefault                                  : No\nForced                                   : No\n\nText #3\nID                                       : 7\nFormat                                   : UTF-8\nCodec ID                                 : S_TEXT/UTF8\nCodec ID/Info                            : UTF-8 Plain Text\nLanguage                                 : English\nDefault                                  : No\nForced                                   : No\n\nText #4\nID                                       : 8\nFormat                                   : UTF-8\nCodec ID                                 : S_TEXT/UTF8\nCodec ID/Info                            : UTF-8 Plain Text\nLanguage                                 : French\nDefault                                  : No\nForced                                   : No\n\nText #5\nID                                       : 9\nFormat                                   : UTF-8\nCodec ID                                 : S_TEXT/UTF8\nCodec ID/Info                            : UTF-8 Plain Text\nLanguage                                 : Portuguese\nDefault                                  : No\nForced                                   : No\n\nMenu\n00:00:00.000                             : en:Chapter 01\n00:02:03.734                             : en:Chapter 02\n00:06:03.068                             : en:Chapter 03\n00:11:18.902                             : en:Chapter 04\n00:13:36.603                             : en:Chapter 05\n00:16:48.370                             : en:Chapter 06\n00:20:41.271                             : en:Chapter 07\n00:23:55.671                             : en:Chapter 08\n00:28:16.405                             : en:Chapter 09\n00:29:47.805                             : en:Chapter 10\n00:31:31.272                             : en:Chapter 11\n00:33:17.639                             : en:Chapter 12\n00:37:09.706                             : en:Chapter 13\n00:40:16.373                             : en:Chapter 14\n00:43:04.940                             : en:Chapter 15\n00:46:17.607                             : en:Chapter 16\n00:49:53.441                             : en:Chapter 17\n00:51:23.775                             : en:Chapter 18\n00:54:55.275                             : en:Chapter 19\n01:00:27.709                             : en:Chapter 20\n01:03:03.310                             : en:Chapter 21\n01:08:41.111                             : en:Chapter 22\n01:10:00.845                             : en:Chapter 23\n01:13:50.045                             : en:Chapter 24\n01:18:16.545                             : en:Chapter 25\n01:21:05.279                             : en:Chapter 26\n01:24:10.646                             : en:Chapter 27\n01:24:55.880                             : en:Chapter 28\n\n &lt;a href=&quot;\nhttps://box.jisko.net/i/0aafec69.png&quot; rel=&quot;nofollow&quot; target=&quot;_NEW&quot;&gt;\nhttps://box.jisko.net/i/0aafec69.png&lt;/a&gt; &lt;a href=&quot;\nhttps://box.jisko.net/i/f94516e5.png&quot; rel=&quot;nofollow&quot; target=&quot;_NEW&quot;&gt;\nhttps://box.jisko.net/i/f94516e5.png&lt;/a&gt;\n &lt;a href=&quot;\nhttps://box.jisko.net/i/8031a150.png&quot; rel=&quot;nofollow&quot; target=&quot;_NEW&quot;&gt;\nhttps://box.jisko.net/i/8031a150.png&lt;/a&gt;","torrent":{"xt":"urn:btih:73929ad61ded30d1cf55fe917ffa8114d3d1385e","amp;dn":"Portrait.Of.Jennie.1948.HQTV.720p.x264.AC3.%5BFrOnkY%5D","amp;tr":["udp%3A%2F%2Ftracker.openbittorrent.com%3A80","udp%3A%2F%2Fopen.demonii.com%3A1337","udp%3A%2F%2Ftracker.coppersurfer.tk%3A6969","udp%3A%2F%2Fexodus.desync.com%3A6969"],"infoHash":"73929ad61ded30d1cf55fe917ffa8114d3d1385e","infoHashBuffer":{"type":"Buffer","data":[115,146,154,214,29,237,48,209,207,85,254,145,127,250,129,20,211,209,56,94]},"announce":[],"urlList":[]}}